<mxfile host="app.diagrams.net" modified="2023-08-19T08:17:02.310Z" agent="Mozilla/5.0 (Windows NT 10.0; Win64; x64) AppleWebKit/537.36 (KHTML, like Gecko) Chrome/115.0.0.0 Safari/537.36" etag="P-uMA7z1kMvyg7nc9DhI" version="21.6.8" type="github">
  <diagram name="페이지-1" id="XiU3vOUIBbdmcAZuaFP6">
    <mxGraphModel dx="1434" dy="782" grid="1" gridSize="10" guides="1" tooltips="1" connect="1" arrows="1" fold="1" page="1" pageScale="1" pageWidth="827" pageHeight="1169" math="0" shadow="0">
      <root>
        <mxCell id="0" />
        <mxCell id="1" parent="0" />
        <mxCell id="TMyp4y5NWIfxeU26x5db-7" value="" style="shape=cylinder3;whiteSpace=wrap;html=1;boundedLbl=1;backgroundOutline=1;size=15;" vertex="1" parent="1">
          <mxGeometry x="254" y="720" width="320" height="130" as="geometry" />
        </mxCell>
        <mxCell id="TMyp4y5NWIfxeU26x5db-1" value="" style="swimlane;startSize=0;" vertex="1" parent="1">
          <mxGeometry x="364" y="600" width="106" height="100" as="geometry" />
        </mxCell>
        <mxCell id="TMyp4y5NWIfxeU26x5db-5" value="" style="sketch=0;html=1;dashed=0;whitespace=wrap;fillColor=#2875E2;strokeColor=#ffffff;points=[[0.005,0.63,0],[0.1,0.2,0],[0.9,0.2,0],[0.5,0,0],[0.995,0.63,0],[0.72,0.99,0],[0.5,1,0],[0.28,0.99,0]];verticalLabelPosition=bottom;align=center;verticalAlign=top;shape=mxgraph.kubernetes.icon;prIcon=pod" vertex="1" parent="TMyp4y5NWIfxeU26x5db-1">
          <mxGeometry x="25" y="26" width="50" height="48" as="geometry" />
        </mxCell>
        <mxCell id="TMyp4y5NWIfxeU26x5db-2" value="" style="swimlane;startSize=0;" vertex="1" parent="1">
          <mxGeometry x="254" y="600" width="100" height="100" as="geometry" />
        </mxCell>
        <mxCell id="TMyp4y5NWIfxeU26x5db-6" value="" style="sketch=0;html=1;dashed=0;whitespace=wrap;fillColor=#2875E2;strokeColor=#ffffff;points=[[0.005,0.63,0],[0.1,0.2,0],[0.9,0.2,0],[0.5,0,0],[0.995,0.63,0],[0.72,0.99,0],[0.5,1,0],[0.28,0.99,0]];verticalLabelPosition=bottom;align=center;verticalAlign=top;shape=mxgraph.kubernetes.icon;prIcon=pod" vertex="1" parent="TMyp4y5NWIfxeU26x5db-2">
          <mxGeometry x="25" y="26" width="50" height="48" as="geometry" />
        </mxCell>
        <mxCell id="TMyp4y5NWIfxeU26x5db-3" value="" style="swimlane;startSize=0;" vertex="1" parent="1">
          <mxGeometry x="474" y="600" width="100" height="100" as="geometry" />
        </mxCell>
        <mxCell id="TMyp4y5NWIfxeU26x5db-4" value="" style="sketch=0;html=1;dashed=0;whitespace=wrap;fillColor=#2875E2;strokeColor=#ffffff;points=[[0.005,0.63,0],[0.1,0.2,0],[0.9,0.2,0],[0.5,0,0],[0.995,0.63,0],[0.72,0.99,0],[0.5,1,0],[0.28,0.99,0]];verticalLabelPosition=bottom;align=center;verticalAlign=top;shape=mxgraph.kubernetes.icon;prIcon=pod" vertex="1" parent="TMyp4y5NWIfxeU26x5db-3">
          <mxGeometry x="25" y="26" width="50" height="48" as="geometry" />
        </mxCell>
        <mxCell id="TMyp4y5NWIfxeU26x5db-8" value="" style="swimlane;startSize=0;" vertex="1" parent="1">
          <mxGeometry x="364" y="490" width="100" height="100" as="geometry" />
        </mxCell>
        <mxCell id="TMyp4y5NWIfxeU26x5db-28" value="" style="shape=image;verticalLabelPosition=bottom;labelBackgroundColor=default;verticalAlign=top;aspect=fixed;imageAspect=0;image=data:image/svg+xml,PHN2ZyB4bWxucz0iaHR0cDovL3d3dy53My5vcmcvMjAwMC9zdmciIGlkPSJlbGFzdGljc2VhcmNoIiB2aWV3Qm94PSIwIDAuODc3MDA2NTMwNzYxNzE4OCAyNTUuOTYwMDA2NzEzODY3MiAyNTQuOTEzOTcwOTQ3MjY1NjIiIHByZXNlcnZlQXNwZWN0UmF0aW89InhNaW5ZTWluIG1lZXQiIGhlaWdodD0iMjQ4OS4zOTQyNDc1MzE4OTEiIHdpZHRoPSIyNDk5LjYwOTQ0MDU2NTEwOTMiPjxwYXRoIGQ9Ik0yNTUuOTYgMTM0LjM5M2MwLTIxLjUyMS0xMy4zNzMtNDAuMTE3LTMzLjIyMy00Ny40M2E3NS4yMzkgNzUuMjM5IDAgMCAwIDEuMjUzLTEzLjc5MWMwLTM5LjkwOS0zMi4zODYtNzIuMjk1LTcyLjI5NS03Mi4yOTUtMjMuMTkzIDAtNDQuOTIzIDExLjA3NC01OC41MDUgMzAuMDg4LTYuNjg2LTUuMjI0LTE0LjgzNS03Ljk0LTIzLjQwMi03Ljk0LTIxLjEwNCAwLTM4LjQ0NiAxNy4xMzMtMzguNDQ2IDM4LjQ0NiAwIDQuNTk3LjgzNiA5LjE5NCAyLjI5OCAxMy4zNzNDMTMuNTgyIDgxLjczOSAwIDEwMC45NjIgMCAxMjIuMjc0YzAgMjEuNTIyIDEzLjM3MyA0MC4zMjcgMzMuNDMxIDQ3LjY0LS44MzUgNC4zODgtMS4yNTMgOC45ODUtMS4yNTMgMTMuNzkgMCAzOS43IDMyLjM4NiA3Mi4wODcgNzIuMDg2IDcyLjA4NyAyMy40MDIgMCA0NC45MjQtMTEuMjgzIDU4LjUwNS0zMC4wODggNi42ODYgNS4yMjMgMTUuMDQ0IDguMTQ5IDIzLjYxMSA4LjE0OSAyMS4xMDQgMCAzOC40NDYtMTcuMTM0IDM4LjQ0Ni0zOC40NDYgMC00LjU5Ny0uODM2LTkuMTk0LTIuMjk4LTEzLjM3MyAxOS42NC03LjEwNCAzMy40MzEtMjYuMzI3IDMzLjQzMS00Ny42NHoiIGZpbGw9IiNGRkYiLz48cGF0aCBkPSJNMTAwLjA4NSAxMTAuMzY0bDU3LjA0MyAyNi4xMTkgNTcuNjY5LTUwLjU2NWE2NC4zMTIgNjQuMzEyIDAgMCAwIDEuMjUzLTEyLjc0NmMwLTM1LjUyLTI4LjgzNC02NC4zNTUtNjQuMzU1LTY0LjM1NS0yMS4zMTMgMC00MS4xNjIgMTAuNDQ3LTUzLjA3MiAyNy45OThsLTkuNjEyIDQ5LjczIDExLjA3NCAyMy44MnoiIGZpbGw9IiNGNEJEMTkiLz48cGF0aCBkPSJNNDAuOTUzIDE3MC43NWMtLjgzNSA0LjE3OS0xLjI1MyA4LjU2Ny0xLjI1MyAxMi45NTUgMCAzNS41MiAyOS4wNDMgNjQuNTY0IDY0LjU2NCA2NC41NjQgMjEuNTIyIDAgNDEuMzcyLTEwLjY1NiA1My40OS0yOC4yMDhsOS40MDMtNDkuNzI5LTEyLjc0Ni0yNC4yMzgtNTcuMjUxLTI2LjExOC01Ni4yMDcgNTAuNzc0eiIgZmlsbD0iIzNDQkVCMSIvPjxwYXRoIGQ9Ik00MC41MzYgNzEuOTE4bDM5LjA3MyA5LjE5NCA4Ljc3NS00NC41MDZjLTUuNDMyLTQuMTc5LTExLjkxLTYuMjY4LTE4LjgwNS02LjI2OC0xNi45MjUgMC0zMC45MjQgMTMuNzktMzAuOTI0IDMwLjkyNCAwIDMuNTUyLjYyNyA3LjMxMyAxLjg4IDEwLjY1NnoiIGZpbGw9IiNFOTQ3OEMiLz48cGF0aCBkPSJNMzcuMTkyIDgxLjMyYy0xNy41NTEgNS42NDItMjkuNjcgMjIuNTY3LTI5LjY3IDQwLjk1NCAwIDE3Ljk3IDExLjA3NCAzNC4wNTkgMjcuNzkgNDAuMzI3bDU0Ljk1My00OS43My0xMC4wMy0yMS41Mi00My4wNDMtMTAuMDN6IiBmaWxsPSIjMkM0NThGIi8+PHBhdGggZD0iTTE2Ny43ODQgMjE5Ljg1MmM1LjQzMiA0LjE4IDExLjkxIDYuNDc4IDE4LjU5NiA2LjQ3OCAxNi45MjUgMCAzMC45MjQtMTMuNzkgMzAuOTI0LTMwLjkyNCAwLTMuNzYxLS42MjctNy4zMTQtMS44OC0xMC42NTdsLTM5LjA3My05LjE5My04LjU2NyA0NC4yOTZ6IiBmaWxsPSIjOTVDNjNEIi8+PHBhdGggZD0iTTE3NS43MjQgMTY1LjMxN2w0My4wNDMgMTAuMDNjMTcuNTUxLTUuODUgMjkuNjctMjIuNTY2IDI5LjY3LTQwLjk1NCAwLTE3Ljk3LTExLjA3NC0zMy44NDktMjcuNzktNDAuMzI2bC01Ni40MTUgNDkuMzExIDExLjQ5MiAyMS45NHoiIGZpbGw9IiMxNzY2NTUiLz48L3N2Zz4=;" vertex="1" parent="TMyp4y5NWIfxeU26x5db-8">
          <mxGeometry x="20.370000000000005" y="17.5" width="65.27" height="65" as="geometry" />
        </mxCell>
        <mxCell id="TMyp4y5NWIfxeU26x5db-11" value="" style="shape=image;verticalLabelPosition=bottom;labelBackgroundColor=default;verticalAlign=top;aspect=fixed;imageAspect=0;image=data:image/svg+xml,PHN2ZyB4bWxucz0iaHR0cDovL3d3dy53My5vcmcvMjAwMC9zdmciIGhlaWdodD0iNDhweCIgd2lkdGg9IjQ4cHgiIHZpZXdCb3g9IjAgMCA0OCA0OCI+PHBvbHlnb24gcG9pbnRzPSIxMCw0MSAxMCw1IDQwLDUiIGZpbGw9IiNlYzQwN2EiLz48cGF0aCBkPSJNNDAuNjU5LDQ0QzM4LjQ5MiwyOS44NDMsMjYuMjYyLDE5LDExLjUsMTljLTAuNTAzLDAtMS4wMDMsMC4wMTMtMS41LDAuMDM4VjQ0SDQwLjY1OXoiIGZpbGw9IiM0ZGI2YWMiLz48cGF0aCBkPSJNMTAsNDEuMlY0NGg1LjY2N2wxNC45NTgtMTcuOTQ5Yy0xLjU2NC0xLjMzNC0zLjI3MS0yLjUwMy01LjA5Mi0zLjQ5TDEwLDQxLjJ6IiBmaWxsPSIjMDA5Njg4Ii8+PHBhdGggZD0iTTExLjUsMTljLTAuNTAzLDAtMS4wMDMsMC4wMTMtMS41LDAuMDM4VjI0djE3bDE1LjQxMi0xOC40OTVDMjEuMjY2LDIwLjI4LDE2LjUzNiwxOSwxMS41LDE5eiIgZmlsbD0iIzIxMjEyMSIvPjwvc3ZnPg==;" vertex="1" parent="1">
          <mxGeometry x="390" y="410" width="48" height="48" as="geometry" />
        </mxCell>
        <mxCell id="TMyp4y5NWIfxeU26x5db-12" value="" style="swimlane;startSize=0;" vertex="1" parent="1">
          <mxGeometry x="364" y="380" width="100" height="100" as="geometry" />
        </mxCell>
        <mxCell id="TMyp4y5NWIfxeU26x5db-14" value="" style="shape=image;verticalLabelPosition=bottom;labelBackgroundColor=default;verticalAlign=top;aspect=fixed;imageAspect=0;image=data:image/svg+xml,PHN2ZyB4bWxuczp4bGluaz0iaHR0cDovL3d3dy53My5vcmcvMTk5OS94bGluayIgeG1sbnM9Imh0dHA6Ly93d3cudzMub3JnLzIwMDAvc3ZnIiB4bWw6c3BhY2U9InByZXNlcnZlIiBzdHlsZT0iZW5hYmxlLWJhY2tncm91bmQ6bmV3IDAgMCAyNTEzIDE2MjkuMjsiIHZpZXdCb3g9IjAgMCAyNTEzIDE2MjkuMiIgeT0iMHB4IiB4PSIwcHgiIGlkPSJMYXllcl8xIiB2ZXJzaW9uPSIxLjEiPiYjeGE7PHN0eWxlIHR5cGU9InRleHQvY3NzIj4mI3hhOwkuc3Qwe2ZpbGw6dXJsKCNTVkdJRF8xXyk7fSYjeGE7CS5zdDF7ZmlsbDp1cmwoI1NWR0lEXzJfKTt9JiN4YTsJLnN0MntmaWxsOnVybCgjU1ZHSURfM18pO30mI3hhOwkuc3Qze2ZpbGw6dXJsKCNTVkdJRF80Xyk7fSYjeGE7CS5zdDR7ZmlsbDp1cmwoI1NWR0lEXzVfKTt9JiN4YTsJLnN0NXtmaWxsOnVybCgjU1ZHSURfNl8pO30mI3hhOwkuc3Q2e2ZpbGw6dXJsKCNTVkdJRF83Xyk7fSYjeGE7CS5zdDd7ZmlsbDp1cmwoI1NWR0lEXzhfKTt9JiN4YTsJLnN0OHtmaWxsOiNGRkZGRkY7fSYjeGE7CS5zdDl7ZmlsbDojMTkxRDFFO30mI3hhOzwvc3R5bGU+JiN4YTs8Zz4mI3hhOwk8Zz4mI3hhOwkJPGc+JiN4YTsJCQk8bGluZWFyR3JhZGllbnQgeTI9IjUyNC43NzU4IiB4Mj0iMTg5My43MjY0IiB5MT0iNTI0Ljc3NTgiIHgxPSI2NTYuMDc5MyIgZ3JhZGllbnRVbml0cz0idXNlclNwYWNlT25Vc2UiIGlkPSJTVkdJRF8xXyI+JiN4YTsJCQkJPHN0b3Agc3R5bGU9InN0b3AtY29sb3I6IzJBNTlBMiIgb2Zmc2V0PSIwIi8+JiN4YTsJCQkJPHN0b3Agc3R5bGU9InN0b3AtY29sb3I6IzJBNTlBMiIgb2Zmc2V0PSIxIi8+JiN4YTsJCQk8L2xpbmVhckdyYWRpZW50PiYjeGE7CQkJPHBhdGggZD0iTTE4ODcuMSw0NTAuM2MtNi41LDAtMTYuNSwwLTIyLjEsMGMtNDAuMi0wLjUtMTE3LjMsMy44LTE4Ny4yLDY0LjJjLTE2Ni45LDE0NC41LTIwNSwzNTcuMi00OTAuNiw0NzImIzEwOyYjOTsmIzk7JiM5OyYjOTtjLTIzNy45LDk1LjYtNTMxLjIsNS4xLTUzMS4yLDUuMXMyNjEuNy0xOC4yLDI5Ni40LTIxNy45YzI3LjEtMTU2LjItMTE1LTI2Ny4xLTIwNC4yLTQwOEM2NTcuNSwyMjIuMiw2MzQuMiwxMDMsNjc3LjksNTEuNSYjMTA7JiM5OyYjOTsmIzk7JiM5O0M4MDEuOC05NC44LDExNDMsMzAwLjcsMTMxMi40LDM1NGMxNjUuOCw1Mi4xLDI3Ny43LTY4LjksNDE1LTUxLjFjNDMuOCw1LjYsNjUuMiwyNC41LDc5LjQsNDguNmM0LjgsOC4xLDE2LjYsMzUuNywyNy4xLDQ1LjkmIzEwOyYjOTsmIzk7JiM5OyYjOTtjMTAuMywxMCwyNCwxNy40LDM2LjgsMjQuOUMxODg3LDQzMS45LDE5MDMuMSw0NTAuMywxODg3LjEsNDUwLjN6IiBjbGFzcz0ic3QwIi8+JiN4YTsJCQk8bGluZWFyR3JhZGllbnQgeTI9IjMxMy40NzQxIiB4Mj0iMTkxNS4xNDE3IiB5MT0iMzEzLjQ3NDEiIHgxPSI2MDYuMDI0NSIgZ3JhZGllbnRVbml0cz0idXNlclNwYWNlT25Vc2UiIGlkPSJTVkdJRF8yXyI+JiN4YTsJCQkJPHN0b3Agc3R5bGU9InN0b3AtY29sb3I6IzkxRDNGMiIgb2Zmc2V0PSIwIi8+JiN4YTsJCQkJPHN0b3Agc3R5bGU9InN0b3AtY29sb3I6IzZGQjJERSIgb2Zmc2V0PSIwLjI2NjQiLz4mI3hhOwkJCQk8c3RvcCBzdHlsZT0ic3RvcC1jb2xvcjojNTU5OENFIiBvZmZzZXQ9IjAuNTIxNCIvPiYjeGE7CQkJCTxzdG9wIHN0eWxlPSJzdG9wLWNvbG9yOiM0QjhGQzgiIG9mZnNldD0iMC42NzI5Ii8+JiN4YTsJCQk8L2xpbmVhckdyYWRpZW50PiYjeGE7CQkJPHBhdGggZD0iTTExMDMsMjIxLjVjLTQxLTMxLjItODMuMy02My45LTEyNC45LTkzLjdsMCwwYy05LjQtNi43LTE4LjgtMTMuMy0yOC4xLTE5LjdjMCwwLDAsMCwwLDAmIzEwOyYjOTsmIzk7JiM5OyYjOTtDODM4LjUsMzEuOCw3MzUuMS0xNiw2NzcuOSw1MS41Yy00My43LDUxLjUtMjAuNCwxNzAuNyw3MC40LDMxNC4yYzAuOSwxLjUsMS45LDIuOSwyLjgsNC40YzQ3LjMsNzMuMiwxODQuNSwyNDQuNyw1MDkuNywyMzcuNCYjMTA7JiM5OyYjOTsmIzk7JiM5O2MyMS40LTIyLjcsNTMuOS02NS42LDk1LjktMTEyLjNDMTI4OC42LDM4NS4xLDExODYsMjg5LjEsMTEwMywyMjEuNXoiIGNsYXNzPSJzdDEiLz4mI3hhOwkJCTxsaW5lYXJHcmFkaWVudCB5Mj0iODEyLjkyMjkiIHgyPSIxOTAyLjgxMzIiIHkxPSI4MTIuOTIyOSIgeDE9IjY1Ni4wNzkyIiBncmFkaWVudFVuaXRzPSJ1c2VyU3BhY2VPblVzZSIgaWQ9IlNWR0lEXzNfIj4mI3hhOwkJCQk8c3RvcCBzdHlsZT0ic3RvcC1jb2xvcjojMkM5RUM3IiBvZmZzZXQ9IjAiLz4mI3hhOwkJCQk8c3RvcCBzdHlsZT0ic3RvcC1jb2xvcjojMkM2M0E1IiBvZmZzZXQ9IjAuNDAzNyIvPiYjeGE7CQkJCTxzdG9wIHN0eWxlPSJzdG9wLWNvbG9yOiMzOTVEQTEiIG9mZnNldD0iMSIvPiYjeGE7CQkJPC9saW5lYXJHcmFkaWVudD4mI3hhOwkJCTxwYXRoIGQ9Ik0xNDMwLjgsNzM4LjljMS4zLTQ4LjgtNy42LTk2LjktMjQuNS0xNDMuNGMtNDIuNyw2LjQtOTAuOCwxMC44LTE0NS41LDEyJiMxMDsmIzk7JiM5OyYjOTsmIzk7Yy0zOS44LDQyLjMtMTMwLjcsMTU1LjMtMjgxLjMsMjU3LjFjLTIwMC41LDEzNS42LTMyMy40LDEyNy0zMjMuNCwxMjdzMjkzLjQsOTAuNSw1MzEuMi01LjFjODUuMy0zNC4zLDE0OC42LTc3LjMsMTk5LjgtMTI0LjcmIzEwOyYjOTsmIzk7JiM5OyYjOTtDMTM5NS41LDg1My44LDE0MjksODEyLDE0MzAuOCw3MzguOXoiIGNsYXNzPSJzdDIiLz4mI3hhOwkJCTxsaW5lYXJHcmFkaWVudCB5Mj0iNTUxLjM2OTgiIHgyPSIxOTAyLjgxMzQiIHkxPSI1NTEuMzY5OCIgeDE9IjY1Ni4wNzkzIiBncmFkaWVudFVuaXRzPSJ1c2VyU3BhY2VPblVzZSIgaWQ9IlNWR0lEXzRfIj4mI3hhOwkJCQk8c3RvcCBzdHlsZT0ic3RvcC1jb2xvcjojNEZBQUM0IiBvZmZzZXQ9IjAiLz4mI3hhOwkJCQk8c3RvcCBzdHlsZT0ic3RvcC1jb2xvcjojMkY3NUIxIiBvZmZzZXQ9IjEuNTU0NTMwZS0wMyIvPiYjeGE7CQkJCTxzdG9wIHN0eWxlPSJzdG9wLWNvbG9yOiMzNTZFQUMiIG9mZnNldD0iMSIvPiYjeGE7CQkJPC9saW5lYXJHcmFkaWVudD4mI3hhOwkJCTxwYXRoIGQ9Ik0xMzU2LjgsNDk1LjJjLTQyLDQ2LjYtNzQuNiw4OS42LTk1LjksMTEyLjNjNTQuOC0xLjIsMTAyLjktNS42LDE0NS41LTEyYy01LTEzLjktMTAuOC0yNy42LTE3LjItNDEuMSYjMTA7JiM5OyYjOTsmIzk7JiM5O0MxMzc5LjYsNTM0LjMsMTM2OC43LDUxNC41LDEzNTYuOCw0OTUuMnoiIGNsYXNzPSJzdDMiLz4mI3hhOwkJCTxsaW5lYXJHcmFkaWVudCB5Mj0iMzU4LjQwOTYiIHgyPSIxOTA5Ljk3NjMiIHkxPSIzNTguNDA5NiIgeDE9IjExMDIuOTkyNCIgZ3JhZGllbnRVbml0cz0idXNlclNwYWNlT25Vc2UiIGlkPSJTVkdJRF81XyI+JiN4YTsJCQkJPHN0b3Agc3R5bGU9InN0b3AtY29sb3I6IzRGQUFDNCIgb2Zmc2V0PSIwIi8+JiN4YTsJCQkJPHN0b3Agc3R5bGU9InN0b3AtY29sb3I6IzJGODFCNiIgb2Zmc2V0PSIxLjU1NDUzMGUtMDMiLz4mI3hhOwkJCQk8c3RvcCBzdHlsZT0ic3RvcC1jb2xvcjojM0I1RUE5IiBvZmZzZXQ9IjEiLz4mI3hhOwkJCTwvbGluZWFyR3JhZGllbnQ+JiN4YTsJCQk8cGF0aCBkPSJNMTYwMC42LDMxOC4zYy04Ny44LDI2LjYtMTc1LjUsNzEuMS0yODguMiwzNS43Yy01NS44LTE3LjUtMTMwLjMtNzIuMi0yMDkuNC0xMzIuNSYjMTA7JiM5OyYjOTsmIzk7JiM5O2M4Myw2Ny42LDE4NS42LDE2My41LDI1My44LDI3My43QzE0MTksNDI2LjMsMTUwMiwzNDkuMywxNjAwLjYsMzE4LjN6IiBjbGFzcz0ic3Q0Ii8+JiN4YTsJCQk8bGluZWFyR3JhZGllbnQgeTI9IjY2Ny4yOTE2IiB4Mj0iMTkwOS45NTIxIiB5MT0iNjY3LjI5MTYiIHgxPSIxMTAyLjk2ODQiIGdyYWRpZW50VW5pdHM9InVzZXJTcGFjZU9uVXNlIiBpZD0iU1ZHSURfNl8iPiYjeGE7CQkJCTxzdG9wIHN0eWxlPSJzdG9wLWNvbG9yOiM0RkFBQzQiIG9mZnNldD0iMCIvPiYjeGE7CQkJCTxzdG9wIHN0eWxlPSJzdG9wLWNvbG9yOiMxRTM3NzMiIG9mZnNldD0iMS41NTQ1MzBlLTAzIi8+JiN4YTsJCQkJPHN0b3Agc3R5bGU9InN0b3AtY29sb3I6IzIwMzM3MCIgb2Zmc2V0PSIxIi8+JiN4YTsJCQk8L2xpbmVhckdyYWRpZW50PiYjeGE7CQkJPHBhdGggZD0iTTE0MDYuNCw1OTUuNWMxNi45LDQ2LjUsMjUuOCw5NC42LDI0LjUsMTQzLjRjLTEuOSw3My0zNS40LDExNC44LTQzLjgsMTIyLjkmIzEwOyYjOTsmIzk7JiM5OyYjOTtjMTIwLjEtMTExLjEsMTczLjgtMjQ2LDI5MC44LTM0Ny4zYzIxLjgtMTguOCw0NC4yLTMyLjIsNjYuMS00MS43YzAsMC0wLjEsMC0wLjEsMEMxNjY3LjIsNTA1LDE1ODQsNTY4LjcsMTQwNi40LDU5NS41eiIgY2xhc3M9InN0NSIvPiYjeGE7CQkJPGxpbmVhckdyYWRpZW50IHkyPSIyOTIuMTg2NCIgeDI9IjE2MjUuMjQ1OCIgeTE9IjczNC43MDE5IiB4MT0iMTYyNS4yNDU4IiBncmFkaWVudFVuaXRzPSJ1c2VyU3BhY2VPblVzZSIgaWQ9IlNWR0lEXzdfIj4mI3hhOwkJCQk8c3RvcCBzdHlsZT0ic3RvcC1jb2xvcjojNEZBQUM0IiBvZmZzZXQ9IjAiLz4mI3hhOwkJCQk8c3RvcCBzdHlsZT0ic3RvcC1jb2xvcjojMkM1QTlBIiBvZmZzZXQ9IjEuNTU0NTMwZS0wMyIvPiYjeGE7CQkJCTxzdG9wIHN0eWxlPSJzdG9wLWNvbG9yOiMzNzQ1ODAiIG9mZnNldD0iMSIvPiYjeGE7CQkJPC9saW5lYXJHcmFkaWVudD4mI3hhOwkJCTxwYXRoIGQ9Ik0xODg3LjEsNDUwLjNjMTYsMC0wLjEtMTguNC0xNi4zLTI3LjljLTEyLjgtNy42LTI2LjUtMTUtMzYuOC0yNC45Yy0xMC42LTEwLjItMjIuNC0zNy45LTI3LjEtNDUuOSYjMTA7JiM5OyYjOTsmIzk7JiM5O2MtMTQuMy0yNC4yLTM1LjYtNDMtNzkuNC00OC42Yy00NC01LjctODUuNCwyLjktMTI2LjgsMTUuNGMtOTguNiwzMS0xODEuNywxMDgtMjQzLjksMTc2LjljMTEuOSwxOS4zLDIyLjksMzksMzIuNCw1OS4xJiMxMDsmIzk7JiM5OyYjOTsmIzk7YzYuNCwxMy42LDEyLjIsMjcuMywxNy4yLDQxLjFjMTc3LjctMjYuOCwyNjAuOC05MC41LDMzNy41LTEyMi43YzAsMCwwLjEsMCwwLjEsMGM0OC4zLTIxLDkzLjUtMjIuOSwxMjEuMS0yMi41JiMxMDsmIzk7JiM5OyYjOTsmIzk7QzE4NzAuNyw0NTAuMywxODgwLjcsNDUwLjMsMTg4Ny4xLDQ1MC4zeiIgY2xhc3M9InN0NiIvPiYjeGE7CQkJPGxpbmVhckdyYWRpZW50IHkyPSI2ODAuODkwMSIgeDI9IjE0MzkuODI4NCIgeTE9IjY4MC44OTAxIiB4MT0iNTIxLjQ5NDgiIGdyYWRpZW50VW5pdHM9InVzZXJTcGFjZU9uVXNlIiBpZD0iU1ZHSURfOF8iPiYjeGE7CQkJCTxzdG9wIHN0eWxlPSJzdG9wLWNvbG9yOiMzOEIxREEiIG9mZnNldD0iMC4xMTE1Ii8+JiN4YTsJCQkJPHN0b3Agc3R5bGU9InN0b3AtY29sb3I6IzMyNkZCNSIgb2Zmc2V0PSIxIi8+JiN4YTsJCQk8L2xpbmVhckdyYWRpZW50PiYjeGE7CQkJPHBhdGggZD0iTTk3OS41LDg2NC42YzE1MC42LTEwMS44LDI0MS41LTIxNC44LDI4MS4zLTI1Ny4xYy0zMjUuMiw3LjMtNDYyLjQtMTY0LjItNTA5LjctMjM3LjQmIzEwOyYjOTsmIzk7JiM5OyYjOTtDODQwLjQsNTA5LDk3OS4zLDYxOS4yLDk1Mi41LDc3My43Yy0zNC43LDE5OS43LTI5Ni40LDIxNy45LTI5Ni40LDIxNy45Uzc3OSwxMDAwLjIsOTc5LjUsODY0LjZ6IiBjbGFzcz0ic3Q3Ii8+JiN4YTsJCQk8ZWxsaXBzZSByeT0iMjUuOCIgcng9IjI2IiBjeT0iMzc3LjQiIGN4PSIxNzE4LjQiIGNsYXNzPSJzdDgiLz4mI3hhOwkJPC9nPiYjeGE7CQk8Zz4mI3hhOwkJCTxnPiYjeGE7CQkJCTxwYXRoIGQ9Ik0xMjEwLDEyODhjLTczLjQsMC0xMzMsNTkuMi0xMzMsMTMydjM5LjJjMCw3Mi44LDU5LjcsMTMyLDEzMywxMzJoODQuNnYtNDcuOUgxMjEwJiMxMDsmIzk7JiM5OyYjOTsmIzk7JiM5O2MtNDUuMiwwLTgyLjMtMzUuNC04NC42LTc5LjdoMTczLjhjMjQuMiwwLDQzLjktMTkuNiw0My45LTQzLjZDMTM0My4xLDEzNDcuMiwxMjgzLjQsMTI4OCwxMjEwLDEyODh6IE0xMTI1LjQsMTQxNS43JiMxMDsmIzk7JiM5OyYjOTsmIzk7JiM5O2MyLjMtNDQuMywzOS40LTc5LjcsODQuNi03OS43YzQ1LjIsMCw4Mi4zLDM1LjQsODQuNiw3OS43SDExMjUuNHoiIGNsYXNzPSJzdDkiLz4mI3hhOwkJCQk8cGF0aCBkPSJNNDI0LjYsMTIyMi40Yy0xOC44LDE5LjQtMjkuMiw0NC43LTI5LjIsNzEuNHY2LjRoLTI3Ljl2NDcuOWgyNy45djI0M2g0OC4zdi0yNDNoNjV2LTQ3LjloLTY1di02LjQmIzEwOyYjOTsmIzk7JiM5OyYjOTsmIzk7YzAtMjkuMywyNC01NC4xLDUyLjUtNTQuMWgzNS43di00OGgtMzUuN0M0NjkuMiwxMTkxLjgsNDQzLjgsMTIwMi42LDQyNC42LDEyMjIuNHoiIGNsYXNzPSJzdDkiLz4mI3hhOwkJCQk8cmVjdCBoZWlnaHQ9IjM5OS45IiB3aWR0aD0iNDguMyIgY2xhc3M9InN0OSIgeT0iMTE5MS40IiB4PSI2MDcuOCIvPiYjeGE7CQkJCTxwYXRoIGQ9Ik05NDkuNCwxNDY3LjljMCw0MS42LTM0LjEsNzUuNC03Niw3NS40Yy00MS45LDAtNzYtMzMuOC03Ni03NS40VjEyODhoLTQ4LjN2MTc5LjkmIzEwOyYjOTsmIzk7JiM5OyYjOTsmIzk7YzAsNjgsNTUuNywxMjMuMywxMjQuMywxMjMuM2M2OC41LDAsMTI0LjMtNTUuMywxMjQuMy0xMjMuM1YxMjg4aC00OC4zVjE0NjcuOXoiIGNsYXNzPSJzdDkiLz4mI3hhOwkJCQk8cGF0aCBkPSJNMTUxNS45LDEyODhjLTY4LjUsMC0xMjQuMyw1NS4zLTEyNC4zLDEyMy4zdjE3OS45aDQ4LjN2LTE3OS45YzAtNDEuNiwzNC4xLTc1LjQsNzYtNzUuNCYjMTA7JiM5OyYjOTsmIzk7JiM5OyYjOTtjNDEuOSwwLDc2LDMzLjgsNzYsNzUuNHYxNzkuOWg0OC4zdi0xNzkuOUMxNjQwLjIsMTM0My4zLDE1ODQuNCwxMjg4LDE1MTUuOSwxMjg4eiIgY2xhc3M9InN0OSIvPiYjeGE7CQkJCTxwYXRoIGQ9Ik0xNzgwLDE0ODkuMnYtMTUzLjJoNjUuNHYtMC4xVjEyODhIMTc4MHYtOTYuNmgtNDguM3Y5Ni42aC00Mi45djQ3LjloNDIuOXYxNTMuMiYjMTA7JiM5OyYjOTsmIzk7JiM5OyYjOTtjMCw1NS4yLDQ1LjIsMTAwLjEsMTAwLjgsMTAwLjFoMjEuNHYtNDhoLTIxLjRDMTgwMy41LDE1NDEuMywxNzgwLDE1MTcuOSwxNzgwLDE0ODkuMnoiIGNsYXNzPSJzdDkiLz4mI3hhOwkJCQk8cGF0aCBkPSJNMjA5NS4yLDExOTEuNHYxMjIuNWMtMjEtMTYuMi00Ny40LTI1LjgtNzYtMjUuOGMtNjguNSwwLTEyNC4zLDU1LjMtMTI0LjMsMTIzLjN2MTkuOHY3LjJ2MjkuNiYjMTA7JiM5OyYjOTsmIzk7JiM5OyYjOTtjMCw2OCw1NS44LDEyMy4zLDEyNC4zLDEyMy4zYzY4LjUsMCwxMjQuMy01NS4zLDEyNC4zLTEyMy4zdi04Ljd2LTIwLjl2LTcuMnYtMTkuOHYtMjIwSDIwOTUuMnogTTIwOTUuMiwxNDM4LjN2MjAuOXY4LjcmIzEwOyYjOTsmIzk7JiM5OyYjOTsmIzk7YzAsNDEuNi0zNC4xLDc1LjQtNzYsNzUuNGMtNDEuOSwwLTc2LTMzLjgtNzYtNzUuNHYtMjkuNnYtNy4ydi0xOS44YzAtNDEuNiwzNC4xLTc1LjQsNzYtNzUuNGM0MS45LDAsNzYsMzMuOCw3Niw3NS40djE5LjgmIzEwOyYjOTsmIzk7JiM5OyYjOTsmIzk7VjE0MzguM3oiIGNsYXNzPSJzdDkiLz4mI3hhOwkJCTwvZz4mI3hhOwkJPC9nPiYjeGE7CTwvZz4mI3hhOzwvZz4mI3hhOzwvc3ZnPg==;" vertex="1" parent="1">
          <mxGeometry x="341.42" y="746" width="151.16" height="98" as="geometry" />
        </mxCell>
      </root>
    </mxGraphModel>
  </diagram>
</mxfile>
